<?xml version="1.0" encoding="iso-8859-1"?>
<!-- Generator: Adobe Illustrator 19.0.0, SVG Export Plug-In . SVG Version: 6.00 Build 0)  -->
<svg xmlns="http://www.w3.org/2000/svg" xmlns:xlink="http://www.w3.org/1999/xlink" version="1.1" id="Layer_1" x="0px" y="0px" viewBox="0 0 512 512" style="enable-background:new 0 0 512 512;" xml:space="preserve" width="512" height="512">
<g>
	<polygon style="fill:#C8E7F9;" points="136.008,502 156.006,462 355.993,462 375.992,502  "/>
	<rect x="156.006" y="180" style="fill:#FAD296;" width="199.987" height="282"/>
	<path style="fill:#FF5959;" d="M24.606,128.889L205.046,25.831c30.697-21.109,71.211-21.108,101.907,0.002l180.355,103.011   C512.359,141.679,503.355,180,475.289,180H36.711C8.697,180-0.353,141.791,24.606,128.889z"/>
	<path style="fill:#C4702A;" d="M305.996,422v80h-99.993v-80c0-27.614,22.384-50,49.997-50h0   C283.612,372,305.996,394.386,305.996,422z"/>
	<path style="fill:#62E7F4;" d="M285.998,300h-59.996v-50c0-16.569,13.431-30,29.998-30h0c16.567,0,29.998,13.431,29.998,30V300z"/>
	<path style="fill:#F0F0F0;" d="M305.996,332v-50c0,0,15.332,10,24.998,10s24.998-10,24.998-10v50H305.996z"/>
	<path style="fill:#F0F0F0;" d="M355.993,332v-50c0,0,15.332,10,24.998,10c9.667,0,24.998-10,24.998-10v50H355.993z"/>
	<path style="fill:#F0F0F0;" d="M256,332v-50c0,0,15.332,10,24.998,10s24.998-10,24.998-10v50H256z"/>
	<path style="fill:#F0F0F0;" d="M206.003,332v-50c0,0,15.332,10,24.998,10c9.667,0,24.998-10,24.998-10v50H206.003z"/>
	<path style="fill:#F0F0F0;" d="M156.006,332v-50c0,0,15.332,10,24.998,10c9.667,0,24.998-10,24.998-10v50H156.006z"/>
	<path style="fill:#F0F0F0;" d="M106.01,332v-50c0,0,15.332,10,24.998,10c9.667,0,24.998-10,24.998-10v50H106.01z"/>
	<g>
		<path d="M492.084,120.057L312.265,17.353C295.607,5.999,276.162,0,255.999,0c-0.001,0-0.001,0-0.002,0    c-20.161,0-39.606,5.997-56.263,17.35L19.815,120.109c-15.308,8.023-22.819,24.754-18.698,41.704    C5.217,178.673,19.521,190,36.711,190h109.296v86.316c-5.18,2.845-11.587,5.684-14.999,5.684c-4.529,0-14.339-5.001-19.536-8.376    c-3.075-2.005-6.999-2.164-10.225-0.417c-3.227,1.748-5.237,5.123-5.237,8.793v50c0,5.522,4.477,10,9.999,10h39.997v117.64    l-18.943,37.889c-1.55,3.1-1.384,6.781,0.438,9.729c1.822,2.947,5.04,4.742,8.506,4.742h239.984c3.466,0,6.684-1.795,8.506-4.742    c1.822-2.948,1.988-6.63,0.438-9.729l-18.943-37.889V342h39.997c5.523,0,9.999-4.478,9.999-10v-50    c0-3.666-2.011-7.036-5.232-8.785c-3.221-1.75-7.146-1.592-10.221,0.403c-5.205,3.381-15.016,8.382-19.544,8.382    c-3.412,0-9.822-2.839-14.999-5.683V190h109.296c17.223,0,31.533-11.354,35.609-28.253    C514.995,144.765,507.437,128.042,492.084,120.057z M146.007,322h-29.998v-23.507c4.873,1.971,10.208,3.507,14.999,3.507    c4.792,0,10.126-1.536,14.999-3.507V322z M166.006,298.493c4.873,1.971,10.208,3.507,14.999,3.507    c4.792,0,10.126-1.536,14.999-3.507V322h-29.998V298.493z M196.004,492h-43.817l9.999-20h33.818V492z M295.997,492h-79.995v-70    c0-22.056,17.943-40,39.997-40s39.997,17.944,39.997,40V492z M256,362c-33.082,0-59.996,26.916-59.996,60v30h-29.998V342h179.988    v110h-29.998v-30C315.996,388.916,289.082,362,256,362z M275.999,280.905c-4.806-1.66-10.837-4.878-14.536-7.28    c-3.227-2.096-7.685-2.103-10.917-0.006c-3.705,2.407-9.738,5.626-14.544,7.286V250c0-11.028,8.972-20,19.999-20    c11.027,0,19.999,8.972,19.999,20V280.905z M280.998,302c4.792,0,10.126-1.536,14.999-3.507V322h-29.998v-23.507    C270.872,300.464,276.207,302,280.998,302z M246.001,298.493V322h-29.998v-23.507c4.873,1.971,10.208,3.507,14.999,3.507    C235.793,302,241.127,300.464,246.001,298.493z M315.996,322v-23.507c4.873,1.971,10.208,3.507,14.999,3.507    c4.792,0,10.126-1.536,14.999-3.507V322H315.996z M315.996,492v-20h33.818l9.999,20H315.996z M380.992,302    c4.792,0,10.126-1.536,14.999-3.507V322h-29.998v-23.507C370.865,300.464,376.2,302,380.992,302z M345.994,276.316    c-5.18,2.845-11.587,5.684-14.999,5.684c-4.529,0-14.339-5.001-19.536-8.376c-3.222-2.092-7.69-2.102-10.917-0.006    c-1.284,0.834-2.849,1.767-4.545,2.698V250c0-22.056-17.943-40-39.997-40s-39.997,17.944-39.997,40v26.317    c-1.693-0.93-3.256-1.861-4.537-2.693c-3.22-2.102-7.69-2.099-10.917-0.006c-5.205,3.381-15.016,8.382-19.544,8.382    c-3.412,0-9.822-2.839-14.999-5.683V190h179.988V276.316z M491.457,157.058c-1.509,6.257-6.549,12.942-16.168,12.942H36.711    c-9.6,0-14.643-6.67-16.161-12.912c-1.55-6.375-0.093-14.798,8.647-19.315c0.124-0.064,0.247-0.131,0.368-0.2l180.44-103.058    c0.241-0.138,0.477-0.286,0.706-0.443c13.544-9.314,29.414-13.971,45.286-13.971c15.872,0,31.746,4.658,45.29,13.973    c0.229,0.158,0.465,0.307,0.707,0.444l180.355,103.011c0.132,0.075,0.265,0.147,0.4,0.217    C491.52,142.238,492.999,150.667,491.457,157.058z"/>
		<path d="M181.505,105c5.52,0,9.999-4.48,9.999-10c0-5.521-4.48-10-9.999-10c-5.52,0-9.999,4.479-9.999,10    C171.505,100.52,175.985,105,181.505,105z"/>
		<path d="M280.498,105c5.52,0,9.999-4.48,9.999-10c0-5.521-4.48-10-9.999-10c-5.52,0-9.999,4.479-9.999,10    C270.499,100.52,274.979,105,280.498,105z"/>
		<path d="M330.495,105c5.52,0,9.999-4.48,9.999-10c0-5.521-4.48-10-9.999-10s-9.999,4.479-9.999,10    C320.496,100.52,324.975,105,330.495,105z"/>
		<path d="M231.501,105c5.52,0,9.999-4.48,9.999-10c0-5.521-4.48-10-9.999-10s-9.999,4.479-9.999,10    C221.502,100.52,225.982,105,231.501,105z"/>
		<path d="M232.001,65c5.52,0,9.999-4.48,9.999-10c0-5.521-4.48-10-9.999-10s-9.999,4.479-9.999,10    C222.002,60.52,226.482,65,232.001,65z"/>
		<path d="M281.998,65c5.52,0,9.999-4.48,9.999-10c0-5.521-4.48-10-9.999-10s-9.999,4.479-9.999,10    C271.999,60.52,276.478,65,281.998,65z"/>
		<path d="M92.011,125c-5.51,0-9.999,4.49-9.999,10s4.489,10,9.999,10c5.509,0,9.999-4.49,9.999-10S97.52,125,92.011,125z"/>
		<path d="M421.989,125H132.008c-5.51,0-9.999,4.49-9.999,10s4.489,10,9.999,10h289.981c5.509,0,9.999-4.49,9.999-10    S427.498,125,421.989,125z"/>
		<path d="M267.499,426c-5.51,0-9.999,4.479-9.999,10c0,5.51,4.489,10,9.999,10c5.509,0,9.999-4.49,9.999-10    C277.498,430.479,273.008,426,267.499,426z"/>
	</g>
</g>















</svg>
